# xmcd
#
# Track frame offsets:
#	150
#	19070
#	34997
#	54402
#	67891
#	81963
#	99195
#	116929
#	133127
#	148893
#	171726
#	190090
#	208312
#
# Disc length: 2985 seconds
#
# Revision: 1
# Processed by: cddbd v1.5.2PL0 Copyright (c) Steve Scherf et al.
# Submitted via: EZCDAudioConverter 7.1.4.1
#
DISCID=c60ba70d
DTITLE=Jill Johnson - Baby Blue Paper
DYEAR=2008
DGENRE=Country swe
TTITLE0=Say Something
TTITLE1=You're Looking for Me
TTITLE2=Love Lessons
TTITLE3=Where the Rainbow Ends
TTITLE4=You Think You're the Man
TTITLE5=I Should've Left Sooner
TTITLE6=You Better Think Again
TTITLE7=Top of the World
TTITLE8=Better Than Me
TTITLE9=What Happened to Us
TTITLE10=Don't Feel Like Me
TTITLE11=Little Girl of Mine
TTITLE12=Baby Blue Paper
EXTD=
EXTT0=
EXTT1=
EXTT2=
EXTT3=
EXTT4=
EXTT5=
EXTT6=
EXTT7=
EXTT8=
EXTT9=
EXTT10=
EXTT11=
EXTT12=
PLAYORDER=
